<svg xmlns="http://www.w3.org/2000/svg" viewBox="0 0 360 150" role="img" aria-label="TeNeT">
  <title>TeNeT — Tensor Network Thermodynamics</title>
  <g fill="none" stroke="#E6EDF3" stroke-width="3.2" stroke-linecap="round" transform="translate(15,15) scale(1.2)">
    <path d="M30,30 L70,30"/>
    <path d="M30,70 L70,70"/>
    <path d="M30,30 L30,70"/>
    <path d="M70,30 L70,70"/>
    <path d="M30,30 L20,20"/>
    <path d="M70,30 L80,20"/>
    <path d="M30,70 L20,80"/>
    <path d="M70,70 L80,80"/>
    <rect x="22.5" y="22.5" width="15" height="15" rx="5"/>
    <rect x="62.5" y="22.5" width="15" height="15" rx="5"/>
    <rect x="22.5" y="62.5" width="15" height="15" rx="5"/>
    <rect x="62.5" y="62.5" width="15" height="15" rx="5"/>
  </g>
  <rect x="60.6" y="60.6" width="28.8" height="28.8" rx="8.4" fill="#E08A3C"/>
  <text x="160" y="96" font-family="system-ui, 'Segoe UI', Arial, sans-serif" font-weight="700" font-size="56" letter-spacing="1" fill="#E6EDF3">T<tspan fill="#E08A3C">e</tspan>N<tspan fill="#E08A3C">e</tspan>T</text>
</svg>
